<svg width="20" height="20" viewBox="0 0 20 20" fill="none" xmlns="http://www.w3.org/2000/svg">
<path d="M1.20432 6.54529C2.6102 7.95118 4.8896 7.95118 6.29549 6.54529C6.46825 6.37254 6.61978 6.18659 6.75008 5.99069C7.39505 6.96056 8.49783 7.59975 9.7499 7.59975C11.0021 7.59975 12.105 6.96039 12.75 5.9903C12.8804 6.18636 13.032 6.37245 13.2049 6.54534C14.6107 7.95122 16.8901 7.95122 18.296 6.54534C19.7019 5.13945 19.7019 2.86006 18.296 1.45417L17.9448 1.10297C17.4947 0.652881 16.8843 0.400024 16.2478 0.400024H3.25253C2.61601 0.400024 2.00556 0.65288 1.55548 1.10297L1.20432 1.45413C-0.201569 2.86001 -0.201569 5.13941 1.20432 6.54529Z" fill="#A685FA"/>
<path d="M1.3499 8.8387C3.06349 9.68884 5.13462 9.57276 6.75058 8.49048C7.60789 9.06411 8.63956 9.39975 9.7499 9.39975C10.8603 9.39975 11.8921 9.06405 12.7495 8.49032C14.3653 9.57268 16.4363 9.6889 18.1499 8.83901V17.8H18.4499C18.947 17.8 19.3499 18.203 19.3499 18.7C19.3499 19.1971 18.947 19.6 18.4499 19.6H13.0499C12.5528 19.6 12.1499 19.1971 12.1499 18.7V14.5C12.1499 14.003 11.747 13.6 11.2499 13.6H8.2499C7.75285 13.6 7.3499 14.003 7.3499 14.5V18.7C7.3499 19.1971 6.94696 19.6 6.4499 19.6H1.0499C0.552846 19.6 0.149902 19.1971 0.149902 18.7C0.149902 18.203 0.552846 17.8 1.0499 17.8H1.3499V8.8387Z" fill="#A685FA"/>
</svg>
