<svg width="44" height="19" viewBox="0 0 44 19" fill="none" xmlns="http://www.w3.org/2000/svg">
<path d="M42.7201 8.74315L42.9905 8.6691L42.7141 8.59251C41.6589 8.2999 40.9877 7.4814 40.6585 6.43704L40.5915 6.03524L40.4273 6.43704C40.1811 7.47858 39.3028 8.28948 38.2704 8.57188L38 8.64593L38.2764 8.72252C39.3316 9.01513 40.1785 9.83293 40.5077 10.8773L40.5939 11.1508L40.6585 10.878C40.9047 9.83645 41.6878 9.02555 42.7201 8.74315Z" fill="#333333"/>
<path d="M17.1128 9.47123L18.1019 9.21093L17.1191 8.92754C13.368 7.8461 10.4621 4.87137 9.46878 1.09599L9.10413 0.000244141L8.7559 1.09599C7.67446 4.84708 4.86892 7.74661 1.09353 8.73995L0.104376 9.00026L1.08717 9.28365C4.83826 10.3651 7.74416 13.3398 8.7375 17.1152L8.99781 18.1044L9.28119 17.1216C10.3626 13.3705 13.3374 10.4646 17.1128 9.47123Z" fill="#666666"/>
<path d="M33.4519 9.25762L33.9973 9.11704L33.4536 8.95731C31.3787 8.34777 29.7643 6.69517 29.2035 4.60651L28.9986 4.00007L28.8098 4.6042C28.2248 6.6727 26.685 8.26522 24.6033 8.80166L24.0579 8.94224L24.6016 9.10197C26.6765 9.71151 28.2909 11.3641 28.8517 13.4528L28.9987 14L29.152 13.458C29.737 11.3895 31.3703 9.79406 33.4519 9.25762Z" fill="#333333"/>
</svg>
