<svg width="23" height="20" viewBox="0 0 23 20" fill="none" xmlns="http://www.w3.org/2000/svg">
<path fill-rule="evenodd" clip-rule="evenodd" d="M0.950195 1.30002C0.950195 0.802968 1.35314 0.400024 1.8502 0.400024H14.4502C14.9473 0.400024 15.3502 0.802968 15.3502 1.30002C15.3502 1.79708 14.9473 2.20002 14.4502 2.20002H14.1502V18.7C14.1502 19.1971 13.7473 19.6 13.2502 19.6H11.4502C10.9531 19.6 10.5502 19.1971 10.5502 18.7V15.7C10.5502 15.203 10.1473 14.8 9.6502 14.8H6.6502C6.15314 14.8 5.7502 15.203 5.7502 15.7V18.7C5.7502 19.1971 5.34725 19.6 4.8502 19.6H1.8502C1.35314 19.6 0.950195 19.1971 0.950195 18.7C0.950195 18.203 1.35314 17.8 1.8502 17.8H2.1502V2.20002H1.8502C1.35314 2.20002 0.950195 1.79708 0.950195 1.30002ZM4.5502 4.60002C4.5502 4.26865 4.81882 4.00002 5.1502 4.00002H6.3502C6.68157 4.00002 6.9502 4.26865 6.9502 4.60002V5.80002C6.9502 6.1314 6.68157 6.40002 6.3502 6.40002H5.1502C4.81882 6.40002 4.5502 6.1314 4.5502 5.80002V4.60002ZM5.1502 8.80002C4.81882 8.80002 4.5502 9.06865 4.5502 9.40002V10.6C4.5502 10.9314 4.81882 11.2 5.1502 11.2H6.3502C6.68157 11.2 6.9502 10.9314 6.9502 10.6V9.40002C6.9502 9.06865 6.68157 8.80002 6.3502 8.80002H5.1502ZM9.3502 4.60002C9.3502 4.26865 9.61882 4.00002 9.9502 4.00002H11.1502C11.4816 4.00002 11.7502 4.26865 11.7502 4.60002V5.80002C11.7502 6.1314 11.4816 6.40002 11.1502 6.40002H9.9502C9.61882 6.40002 9.3502 6.1314 9.3502 5.80002V4.60002ZM9.9502 8.80002C9.61882 8.80002 9.3502 9.06865 9.3502 9.40002V10.6C9.3502 10.9314 9.61882 11.2 9.9502 11.2H11.1502C11.4816 11.2 11.7502 10.9314 11.7502 10.6V9.40002C11.7502 9.06865 11.4816 8.80002 11.1502 8.80002H9.9502Z" fill="#A685FA"/>
<path fill-rule="evenodd" clip-rule="evenodd" d="M16.8502 5.20002C16.3531 5.20002 15.9502 5.60297 15.9502 6.10002V18.4C15.9502 19.0628 16.4875 19.6 17.1502 19.6H21.6502C22.1473 19.6 22.5502 19.1971 22.5502 18.7C22.5502 18.203 22.1473 17.8 21.6502 17.8H21.3502V7.00002H21.6502C22.1473 7.00002 22.5502 6.59708 22.5502 6.10002C22.5502 5.60297 22.1473 5.20002 21.6502 5.20002H16.8502ZM17.4502 9.40002C17.4502 9.06865 17.7188 8.80002 18.0502 8.80002H19.2502C19.5816 8.80002 19.8502 9.06865 19.8502 9.40002V10.6C19.8502 10.9314 19.5816 11.2 19.2502 11.2H18.0502C17.7188 11.2 17.4502 10.9314 17.4502 10.6V9.40002ZM18.0502 13.6C17.7188 13.6 17.4502 13.8687 17.4502 14.2V15.4C17.4502 15.7314 17.7188 16 18.0502 16H19.2502C19.5816 16 19.8502 15.7314 19.8502 15.4V14.2C19.8502 13.8687 19.5816 13.6 19.2502 13.6H18.0502Z" fill="#A685FA"/>
</svg>
