<svg width="97" height="97" viewBox="0 0 97 97" fill="none" xmlns="http://www.w3.org/2000/svg">
<path d="M45.3151 86.0699L44.2608 93.0139L41.9643 92.6652C41.4849 92.5924 41.049 92.4332 40.6566 92.1876C40.2638 91.9453 39.933 91.6396 39.6643 91.2707C39.395 90.9051 39.203 90.4987 39.0882 90.0516C38.9696 89.6074 38.9467 89.1455 39.0195 88.6661C39.0923 88.1866 39.2515 87.7507 39.4971 87.3584C39.739 86.9689 40.0429 86.6378 40.4091 86.3653C40.7747 86.096 41.1813 85.9024 41.6289 85.7843C42.0759 85.6695 42.5392 85.6485 43.0187 85.7213L45.3151 86.0699ZM44.1268 86.945L42.862 86.7529C42.5247 86.7017 42.2011 86.7169 41.891 86.7983C41.5776 86.8793 41.2914 87.0151 41.0324 87.2058C40.7701 87.3961 40.5538 87.6288 40.3835 87.904C40.2132 88.1792 40.1024 88.4854 40.0512 88.8227C40 89.16 40.0148 89.4853 40.0958 89.7987C40.1768 90.1121 40.3143 90.3985 40.5083 90.658C40.699 90.917 40.932 91.1316 41.2072 91.302C41.4791 91.4718 41.7837 91.5823 42.121 91.6336L43.3858 91.8256L44.1268 86.945Z" fill="white"/>
<path d="M34.104 88.7502L33.1208 88.4006L34.8014 83.6736L35.7846 84.0232L34.104 88.7502ZM33.3593 89.2574C33.5105 89.3112 33.6192 89.4049 33.6853 89.5384C33.7514 89.672 33.7582 89.8128 33.7055 89.9609C33.654 90.1059 33.5604 90.2093 33.4248 90.2711C33.2882 90.3361 33.1458 90.3423 32.9976 90.2896C32.8527 90.2381 32.7477 90.1439 32.6827 90.0073C32.6166 89.8737 32.6093 89.7345 32.6609 89.5895C32.7135 89.4414 32.8076 89.3364 32.9432 89.2746C33.0756 89.2116 33.2143 89.2059 33.3593 89.2574Z" fill="white"/>
<path d="M30.0613 81.4213C30.2856 81.562 30.4864 81.7319 30.6638 81.9309C30.8412 82.1299 30.977 82.3424 31.0712 82.5686C31.1609 82.7961 31.1966 83.0247 31.1784 83.2546L30.2161 83.1662C30.2209 83.0661 30.1971 82.9523 30.1445 82.8249C30.0889 82.6958 30.01 82.5712 29.9078 82.451C29.804 82.3338 29.6815 82.2369 29.5404 82.1603C29.4023 82.0854 29.264 82.0351 29.1257 82.0095C28.9828 81.9853 28.8509 81.9936 28.7298 82.0344C28.6087 82.0752 28.517 82.153 28.4548 82.2676C28.3846 82.397 28.3745 82.5209 28.4244 82.6393C28.4698 82.759 28.5468 82.8731 28.6554 82.9815C28.764 83.0899 28.8734 83.1968 28.9836 83.3023C29.2366 83.5233 29.4533 83.755 29.6337 83.9975C29.8097 84.2414 29.9203 84.4898 29.9657 84.7427C30.0095 84.9986 29.9612 85.2559 29.8209 85.5146C29.6677 85.7968 29.4589 85.9993 29.1944 86.1221C28.9283 86.2479 28.6414 86.2997 28.3339 86.2774C28.0234 86.2535 27.7271 86.165 27.4449 86.0119C27.0921 85.8205 26.8094 85.57 26.5968 85.2606C26.3842 84.9512 26.2709 84.6234 26.2571 84.2772L27.2191 84.2399C27.2154 84.352 27.2385 84.4672 27.2884 84.5856C27.3383 84.704 27.4079 84.8141 27.4973 84.9159C27.5851 85.0206 27.6876 85.1086 27.805 85.1799C27.9517 85.2671 28.1009 85.3252 28.2526 85.3543C28.3997 85.3846 28.5346 85.3779 28.6573 85.3342C28.78 85.2904 28.8773 85.2023 28.949 85.0701C29.0192 84.9407 29.0263 84.819 28.9703 84.7049C28.9126 84.5937 28.8251 84.4815 28.7077 84.3683C28.5873 84.2535 28.4664 84.1328 28.3449 84.006C28.1279 83.7817 27.9375 83.5471 27.7736 83.3021C27.6081 83.0601 27.5019 82.8141 27.4549 82.5641C27.4079 82.3141 27.4551 82.0658 27.5966 81.8191C27.7465 81.5428 27.9619 81.3457 28.2427 81.2279C28.5206 81.1085 28.8213 81.0662 29.1449 81.101C29.4685 81.1358 29.774 81.2425 30.0613 81.4213Z" fill="white"/>
<path d="M21.9418 77.6249L21.5497 76.6381C21.9279 76.5398 22.3129 76.5298 22.7047 76.6084C23.0939 76.6847 23.4452 76.8536 23.7586 77.1149C24.113 77.4105 24.3606 77.7716 24.5013 78.1982C24.6395 78.6226 24.6684 79.0605 24.5882 79.5118C24.5032 79.9636 24.3054 80.3757 23.9948 80.7481C23.7592 81.0306 23.4895 81.2521 23.1858 81.4126C22.88 81.5756 22.5627 81.6768 22.2338 81.7161C21.9002 81.7558 21.5726 81.7308 21.251 81.6412C20.9295 81.5515 20.6364 81.3964 20.3718 81.1758C20.0585 80.9144 19.8293 80.5992 19.6843 80.23C19.5367 79.8586 19.4784 79.4769 19.5094 79.0846L20.5505 79.2931C20.5513 79.5115 20.5957 79.7141 20.6839 79.9008C20.7699 80.0902 20.8886 80.248 21.0402 80.3744C21.2508 80.55 21.4904 80.6518 21.7589 80.6798C22.0226 80.7081 22.2828 80.6703 22.5393 80.5664C22.7912 80.4629 23.0092 80.3006 23.1934 80.0798C23.3755 79.8614 23.4947 79.6167 23.5509 79.3457C23.6049 79.0772 23.5943 78.8158 23.519 78.5614C23.4412 78.3049 23.2983 78.0898 23.0902 77.9163C22.931 77.7835 22.7494 77.6931 22.5456 77.645C22.3418 77.597 22.1405 77.5903 21.9418 77.6249Z" fill="white"/>
<path d="M18.189 71.3622C18.4707 71.7279 18.6339 72.1341 18.6785 72.5811C18.721 73.0254 18.6541 73.4591 18.4776 73.8822C18.2965 74.3046 18.0138 74.6639 17.6296 74.9599C17.3382 75.1844 17.0268 75.342 16.6955 75.4326C16.3616 75.5252 16.0298 75.5549 15.7003 75.5217C15.366 75.4879 15.0517 75.3923 14.7573 75.2349C14.4629 75.0775 14.2106 74.8624 14.0004 74.5895C13.7187 74.2239 13.5565 73.8189 13.514 73.3746C13.4694 72.9277 13.5377 72.4929 13.7188 72.0705C13.8979 71.6454 14.1809 71.2838 14.5677 70.9858C14.8565 70.7633 15.1665 70.6067 15.4978 70.5161C15.8291 70.4255 16.1619 70.3971 16.4962 70.4309C16.8257 70.4641 17.1377 70.5594 17.4321 70.7168C17.7244 70.8716 17.9767 71.0867 18.189 71.3622ZM17.3624 71.9991C17.193 71.7792 16.9826 71.6268 16.7313 71.5417C16.48 71.4567 16.2202 71.4373 15.9519 71.4836C15.6789 71.5293 15.4298 71.6389 15.2046 71.8124C14.9741 71.99 14.803 72.2063 14.6912 72.4613C14.5774 72.7136 14.5309 72.9711 14.5517 73.2337C14.5699 73.4984 14.6616 73.738 14.827 73.9526C14.9944 74.1699 15.2047 74.3223 15.4581 74.41C15.7094 74.4951 15.9715 74.5148 16.2445 74.4691C16.5155 74.4207 16.7649 74.3088 16.9928 74.1332C17.2285 73.9516 17.401 73.7343 17.5101 73.4813C17.6192 73.2284 17.6634 72.9706 17.6426 72.7079C17.6171 72.4447 17.5237 72.2084 17.3624 71.9991Z" fill="white"/>
<path d="M13.3164 63.5178L13.8837 64.7312L10.1053 68.5189L9.63361 67.5099L12.5104 64.6367L8.45875 64.9967L7.98922 63.9923L13.3164 63.5178Z" fill="white"/>
<path d="M11.1137 56.4892C11.2135 56.9398 11.1888 57.3769 11.0394 57.8005C10.8894 58.2209 10.6447 58.5852 10.3053 58.8933C9.96194 59.1989 9.55352 59.4042 9.08005 59.5091C8.72086 59.5887 8.37206 59.5992 8.03363 59.5406C7.69194 59.4828 7.37893 59.3688 7.09462 59.1989C6.80632 59.0264 6.5623 58.8065 6.36257 58.539C6.16284 58.2715 6.02571 57.9696 5.95117 57.6333C5.86795 57.2578 5.86997 56.8959 5.95724 56.5477C6.04124 56.2002 6.19578 55.8851 6.42086 55.6022C6.64267 55.3201 6.91996 55.0874 7.25272 54.904C7.58222 54.7214 7.95086 54.6071 8.35864 54.5613L9.19554 58.3376C9.41144 58.2453 9.59743 58.1184 9.75352 57.9571C9.90561 57.7932 10.0129 57.605 10.0754 57.3924C10.1372 57.1766 10.1437 56.9508 10.0949 56.715C10.0399 56.4668 9.9279 56.2552 9.75895 56.0803C9.58928 55.9021 9.38058 55.7719 9.13286 55.6898L9.14382 54.6031C9.62153 54.7028 10.0429 54.9194 10.4081 55.253C10.7699 55.5873 11.0051 55.9994 11.1137 56.4892ZM8.42436 58.5445L7.80781 55.7625C7.57994 55.8472 7.38615 55.9775 7.22643 56.1534C7.06272 56.3267 6.94743 56.5252 6.88055 56.749C6.80968 56.9703 6.8003 57.1984 6.8524 57.4335C6.90378 57.6654 7.00705 57.8686 7.16222 58.0432C7.31666 58.2145 7.50468 58.3441 7.72628 58.432C7.94389 58.5174 8.17658 58.5549 8.42436 58.5445Z" fill="white"/>
<path d="M10.0659 50.1577L5.05013 50.2586L5.02915 49.2153L5.56082 49.2046C5.35001 49.0349 5.18185 48.8242 5.05636 48.5725C4.93087 48.3207 4.86516 48.0478 4.85924 47.7535C4.85548 47.5662 4.87682 47.3801 4.92328 47.1952L5.98498 47.5904C5.93744 47.7218 5.91499 47.8527 5.91761 47.9831C5.92205 48.2038 5.98129 48.405 6.09534 48.5867C6.20604 48.7684 6.35446 48.9126 6.54059 49.0193C6.72673 49.1259 6.93181 49.177 7.15585 49.1725L10.045 49.1144L10.0659 50.1577Z" fill="white"/>
<path d="M5.88351 32.1305L6.27755 30.9663L9.15832 34.473L12.1616 35.4894L11.8271 36.4778L8.82379 35.4614L4.40705 36.4929L4.80109 35.3286L7.91235 34.6021L5.88351 32.1305Z" fill="white"/>
<path d="M15.8039 28.1551C15.5588 28.5463 15.2345 28.8404 14.8308 29.0374C14.4289 29.2316 13.999 29.3194 13.541 29.3008C13.0819 29.2776 12.6469 29.1373 12.2359 28.8798C11.9241 28.6845 11.6682 28.4472 11.4682 28.168C11.2654 27.887 11.1223 27.5862 11.039 27.2656C10.9546 26.9404 10.9351 26.6125 10.9805 26.2818C11.0259 25.951 11.14 25.6397 11.3229 25.3478C11.568 24.9567 11.8914 24.664 12.2933 24.4698C12.697 24.2728 13.1284 24.1859 13.5874 24.209C14.0483 24.2294 14.4856 24.3692 14.8994 24.6284C15.2084 24.822 15.4628 25.0584 15.6628 25.3376C15.8628 25.6168 16.005 25.919 16.0894 26.2442C16.1727 26.5648 16.1917 26.8905 16.1463 27.2212C16.1027 27.5491 15.9885 27.8604 15.8039 28.1551ZM14.9196 27.6011C15.067 27.3659 15.1369 27.1157 15.1294 26.8505C15.1219 26.5853 15.0498 26.3349 14.9132 26.0994C14.7756 25.8592 14.5863 25.6637 14.3454 25.5127C14.0988 25.3582 13.8366 25.2729 13.5586 25.2566C13.2825 25.2375 13.0249 25.2833 12.7858 25.394C12.5439 25.503 12.351 25.6722 12.2072 25.9018C12.0616 26.1342 11.9917 26.3844 11.9974 26.6525C12.0049 26.9176 12.0775 27.1703 12.2151 27.4105C12.3546 27.6478 12.5462 27.8428 12.7899 27.9955C13.0422 28.1536 13.3058 28.2398 13.5809 28.2543C13.856 28.2688 14.1131 28.2207 14.3522 28.11C14.5902 27.9947 14.7793 27.825 14.9196 27.6011Z" fill="white"/>
<path d="M17.9702 21.7252L15.7386 19.5226L16.4717 18.7799L18.5211 20.8028C18.6806 20.9602 18.8646 21.0643 19.073 21.1149C19.2815 21.1656 19.4896 21.1642 19.6974 21.1109C19.9028 21.0551 20.083 20.9487 20.2381 20.7916C20.3955 20.6321 20.4995 20.4505 20.5502 20.2468C20.6009 20.0384 20.5984 19.8314 20.5426 19.626C20.4892 19.4183 20.3828 19.2357 20.2233 19.0783L18.1739 17.0554L18.9069 16.3127L22.4809 19.8333L21.7479 20.576L21.3587 20.199C21.3865 20.466 21.3539 20.7323 21.2611 20.9978C21.1682 21.2633 21.0196 21.4996 20.8152 21.7066C20.5544 21.9709 20.2528 22.1478 19.9105 22.2376C19.5681 22.3273 19.2252 22.3296 18.8817 22.2443C18.5383 22.159 18.2344 21.986 17.9702 21.7252Z" fill="white"/>
<path d="M25.4316 17.4645L22.5947 13.3268L23.4553 12.7368L23.756 13.1754C23.7822 12.906 23.8661 12.6498 24.0076 12.4067C24.1492 12.1637 24.3413 11.959 24.5841 11.7925C24.7386 11.6866 24.9058 11.6023 25.0859 11.5397L25.3382 12.6441C25.2023 12.6765 25.0805 12.7295 24.9729 12.8033C24.7909 12.9281 24.6552 13.088 24.5659 13.2831C24.4747 13.4754 24.4356 13.6786 24.4486 13.8927C24.4616 14.1069 24.5314 14.3063 24.6581 14.4911L26.2922 16.8745L25.4316 17.4645Z" fill="white"/>
<path d="M35.7959 11.9403L34.0755 5.13069L36.3275 4.5617C36.7977 4.44291 37.2612 4.42066 37.7181 4.49496C38.1741 4.56602 38.5976 4.71949 38.9883 4.95538C39.3783 5.18802 39.7128 5.48813 39.992 5.85571C40.2735 6.21923 40.4737 6.63608 40.5925 7.10626C40.7113 7.57645 40.7336 8.03998 40.6593 8.49686C40.5874 8.94967 40.4355 9.37267 40.2037 9.76586C39.9711 10.1558 39.6714 10.492 39.3046 10.7744C38.937 11.0535 38.5181 11.2525 38.048 11.3713L35.7959 11.9403ZM36.552 10.6729L37.7924 10.3596C38.1231 10.276 38.4156 10.1366 38.6698 9.94125C38.9273 9.74512 39.1384 9.50894 39.3032 9.23273C39.4712 8.9557 39.5804 8.65732 39.6307 8.33759C39.681 8.01786 39.6644 7.69262 39.5808 7.36187C39.4972 7.03112 39.3574 6.73701 39.1613 6.47955C38.9651 6.22209 38.7273 6.01137 38.4479 5.8474C38.1717 5.68261 37.8737 5.57506 37.554 5.52475C37.2375 5.47363 36.9139 5.48985 36.5831 5.57341L35.3428 5.88678L36.552 10.6729Z" fill="white"/>
<path d="M45.3418 10.1138L45.1645 5.10014L46.2073 5.06325L46.2261 5.5947C46.3926 5.38132 46.6007 5.20998 46.8505 5.08066C47.1003 4.95135 47.3722 4.88149 47.6664 4.87109C47.8536 4.86447 48.04 4.88298 48.2256 4.92661L47.8467 5.99421C47.7145 5.94868 47.5833 5.92822 47.4529 5.93283C47.2323 5.94063 47.0321 6.00294 46.8521 6.11974C46.6721 6.2332 46.5301 6.3838 46.4264 6.57154C46.3226 6.75927 46.2746 6.96511 46.2825 7.18906L46.3847 10.0769L45.3418 10.1138Z" fill="white"/>
<path d="M53.9114 10.6312C53.456 10.5564 53.0593 10.371 52.7215 10.075C52.387 9.77944 52.1398 9.41689 51.9798 8.98732C51.8237 8.55499 51.7848 8.09954 51.8634 7.62098C51.9229 7.25793 52.0428 6.9302 52.223 6.63778C52.4037 6.34206 52.6257 6.09379 52.8891 5.89299C53.1564 5.68942 53.4513 5.54462 53.7738 5.45858C54.0964 5.37254 54.4276 5.35741 54.7676 5.41318C55.1471 5.47546 55.4823 5.6118 55.7732 5.8222C56.0646 6.02931 56.2997 6.28989 56.4787 6.60395C56.6581 6.91471 56.7712 7.25862 56.8178 7.6357C56.8649 8.00947 56.834 8.39417 56.725 8.78978L52.9081 8.16351C52.9136 8.39828 52.9623 8.6181 53.0541 8.82296C53.1497 9.02506 53.2846 9.19462 53.4587 9.33164C53.6361 9.4692 53.8433 9.55913 54.0804 9.60142C54.3312 9.64257 54.5692 9.61723 54.7944 9.52539C55.0229 9.43409 55.2213 9.2887 55.3896 9.08924L56.3944 9.50321C56.1244 9.90967 55.7667 10.2204 55.3213 10.4354C54.8764 10.6471 54.4065 10.7124 53.9114 10.6312ZM53.0026 7.37068L55.8145 7.83205C55.8205 7.589 55.7715 7.36067 55.6676 7.14704C55.5676 6.93066 55.4261 6.74984 55.2432 6.60459C55.0641 6.45659 54.8557 6.36309 54.6181 6.3241C54.3838 6.28565 54.1567 6.30602 53.937 6.3852C53.7206 6.46492 53.5304 6.59132 53.3664 6.76438C53.2063 6.93469 53.085 7.13679 53.0026 7.37068Z" fill="white"/>
<path d="M65.6748 8.78348L66.6404 9.17913L64.7382 13.8214L63.768 13.4238L64.0067 12.7355C63.7728 12.918 63.5101 13.0344 63.2184 13.0847C62.9267 13.1351 62.623 13.0956 62.3073 12.9662C61.9669 12.8267 61.6725 12.632 61.4243 12.3822C61.1774 12.1292 60.9863 11.8412 60.8512 11.5184C60.7191 11.1968 60.6505 10.8614 60.6453 10.5124C60.6414 10.1602 60.7099 9.81231 60.8506 9.46878C60.9863 9.13763 61.1757 8.85197 61.4187 8.61178C61.6629 8.3685 61.94 8.18201 62.2497 8.05231C62.5595 7.92262 62.8836 7.85484 63.2222 7.84898C63.5651 7.8413 63.9021 7.9053 64.2333 8.04099C64.5706 8.17922 64.836 8.37833 65.0295 8.63832C65.2273 8.89649 65.3625 9.1796 65.4351 9.48765L65.6748 8.78348ZM62.6664 12.0236C62.9388 12.1352 63.2043 12.1663 63.4631 12.117C63.7232 12.0645 63.9558 11.9466 64.1611 11.7632C64.3694 11.5811 64.5307 11.3508 64.6448 11.0723C64.7602 10.7906 64.8076 10.5118 64.7869 10.2359C64.7662 9.95997 64.681 9.71361 64.5313 9.49684C64.3859 9.27824 64.1771 9.11314 63.9047 9.00155C63.6355 8.89122 63.3615 8.85849 63.0829 8.90336C62.8043 8.94823 62.5531 9.05854 62.3293 9.23429C62.1054 9.41005 61.9365 9.63719 61.8223 9.91573C61.7069 10.1974 61.6688 10.4799 61.7081 10.7635C61.7517 11.0452 61.8554 11.2992 62.0194 11.5254C62.1877 11.7498 62.4034 11.9158 62.6664 12.0236Z" fill="white"/>
<path d="M67.9789 15.4672L71.017 11.4749L71.8474 12.1068L71.5253 12.53C71.7893 12.4703 72.0576 12.4685 72.3301 12.5246C72.6053 12.5827 72.86 12.7009 73.0942 12.8792C73.379 13.0959 73.5885 13.3646 73.7227 13.6853C73.8589 14.0033 73.9115 14.3291 73.8804 14.6627C74.1936 14.5438 74.519 14.5056 74.8565 14.5481C75.1987 14.59 75.5122 14.7193 75.797 14.936C76.0924 15.1608 76.3065 15.4372 76.4394 15.7653C76.5722 16.0933 76.6183 16.4331 76.5777 16.7847C76.5371 17.1362 76.4044 17.4597 76.1796 17.7552L74.2747 20.2583L73.4443 19.6264L75.1882 17.3348C75.3219 17.1592 75.4018 16.9657 75.428 16.7545C75.4543 16.5433 75.43 16.3378 75.3551 16.1379C75.2802 15.9381 75.155 15.7713 74.9793 15.6376C74.8037 15.504 74.6116 15.425 74.403 15.4008C74.1945 15.3766 73.9919 15.4053 73.7954 15.4869C73.5988 15.5684 73.4296 15.7024 73.2878 15.8887L71.544 18.1802L70.7136 17.5483L72.4575 15.2567C72.5992 15.0704 72.6832 14.8717 72.7095 14.6605C72.7357 14.4493 72.708 14.2454 72.6265 14.0488C72.5475 13.8543 72.4203 13.6902 72.2446 13.5565C72.0716 13.4249 71.8775 13.3486 71.6622 13.3277C71.4496 13.3088 71.2451 13.3401 71.0485 13.4217C70.8519 13.5033 70.6868 13.6319 70.5531 13.8076L68.8092 16.0991L67.9789 15.4672Z" fill="white"/>
<path d="M79.8343 27.1278L85.9143 23.6116L87.1249 25.7049C87.3141 26.032 87.4038 26.3742 87.394 26.7314C87.3859 27.0916 87.2896 27.4293 87.1049 27.7448C86.922 28.0631 86.664 28.3185 86.3311 28.511C85.9923 28.707 85.6386 28.8034 85.2697 28.8003C84.9055 28.7985 84.5653 28.7112 84.2491 28.5386C83.9329 28.3661 83.6827 28.1205 83.4986 27.802L82.8104 26.6121L80.3567 28.0311L79.8343 27.1278ZM83.7137 26.0897L84.3491 27.1884C84.4496 27.3621 84.5843 27.4948 84.7532 27.5864C84.9238 27.681 85.1057 27.7284 85.299 27.7286C85.494 27.7317 85.6827 27.6806 85.8651 27.5751C86.0475 27.4696 86.186 27.3316 86.2805 27.161C86.3796 26.9916 86.4293 26.8103 86.4295 26.617C86.4343 26.4249 86.3865 26.242 86.2861 26.0683L85.6506 24.9695L83.7137 26.0897Z" fill="white"/>
<path d="M83.5017 34.3327L88.2422 32.6908L88.5837 33.6769L88.0812 33.8509C88.3341 33.9474 88.559 34.096 88.756 34.2968C88.9529 34.4976 89.0996 34.737 89.1959 35.0151C89.2572 35.1921 89.2942 35.3757 89.307 35.566L88.1752 35.5173C88.18 35.3776 88.161 35.2462 88.1183 35.1229C88.046 34.9143 87.9277 34.7412 87.7632 34.6035C87.6018 34.4647 87.4162 34.3733 87.2063 34.3292C86.9963 34.2851 86.7855 34.2997 86.5737 34.373L83.8432 35.3188L83.5017 34.3327Z" fill="white"/>
<path d="M85.5224 42.6767C85.46 42.2194 85.5208 41.7858 85.7046 41.376C85.8888 40.9694 86.1628 40.6266 86.5264 40.3475C86.8938 40.0713 87.3178 39.9005 87.7983 39.835C88.1629 39.7853 88.5113 39.8036 88.8438 39.89C89.1795 39.9759 89.4821 40.1152 89.7514 40.3081C90.0245 40.5037 90.2495 40.7431 90.4264 41.0262C90.6034 41.3092 90.7152 41.6214 90.7617 41.9627C90.824 42.4201 90.763 42.852 90.5788 43.2585C90.395 43.6684 90.1194 44.0114 89.7519 44.2877C89.385 44.5672 88.9596 44.7399 88.4758 44.8059C88.1145 44.8551 87.7677 44.8365 87.4353 44.7502C87.1028 44.6639 86.8001 44.5228 86.527 44.3271C86.2577 44.1343 86.0346 43.8964 85.8576 43.6133C85.6811 43.3336 85.5693 43.0214 85.5224 42.6767ZM86.5563 42.5358C86.5938 42.8109 86.7003 43.0478 86.876 43.2467C87.0516 43.4455 87.2673 43.5917 87.523 43.6851C87.7826 43.7814 88.0532 43.8103 88.3348 43.7719C88.6232 43.7326 88.8792 43.6302 89.1031 43.4647C89.3274 43.3025 89.4959 43.1023 89.6086 42.8642C89.7246 42.6256 89.7643 42.3721 89.7277 42.1036C89.6907 41.8319 89.5841 41.595 89.4081 41.3928C89.2325 41.1939 89.0149 41.0464 88.7553 40.9501C88.4963 40.8571 88.2242 40.8301 87.9392 40.8689C87.6443 40.9091 87.3866 41.0118 87.166 41.1768C86.9455 41.3419 86.7789 41.5435 86.6662 41.7816C86.5572 42.0226 86.5206 42.274 86.5563 42.5358Z" fill="white"/>
<path d="M83.5101 49.8494L83.6047 48.8102L91.099 49.4927L91.0043 50.5319L90.2699 50.465C90.5112 50.6549 90.7 50.887 90.8362 51.1614C90.9724 51.4357 91.0244 51.7495 90.9923 52.1025C90.9592 52.4656 90.86 52.7991 90.6946 53.1031C90.5289 53.4104 90.3136 53.6729 90.0486 53.8906C89.787 54.1085 89.4917 54.2714 89.1628 54.3791C88.834 54.4869 88.488 54.5242 88.125 54.4912C87.7619 54.4581 87.4267 54.3587 87.1194 54.193C86.8121 54.0274 86.5478 53.8135 86.3265 53.5516C86.1085 53.2899 85.9458 52.993 85.8384 52.6608C85.7306 52.332 85.6933 51.986 85.7263 51.6229C85.7585 51.2699 85.8663 50.9707 86.0499 50.7255C86.2367 50.4806 86.4643 50.2863 86.7326 50.1429L83.5101 49.8494ZM89.989 52.0011C90.0153 51.7113 89.9653 51.4498 89.8387 51.2166C89.7122 50.9835 89.5313 50.794 89.2961 50.6483C89.0641 50.503 88.7983 50.4166 88.4985 50.3893C88.1988 50.362 87.92 50.3988 87.6623 50.4996C87.4046 50.6003 87.1925 50.754 87.0259 50.9605C86.8593 51.167 86.7629 51.4151 86.7365 51.7049C86.7104 51.9913 86.758 52.261 86.8794 52.5138C87.0041 52.767 87.1832 52.9764 87.4166 53.1421C87.6501 53.3077 87.9183 53.4044 88.2214 53.432C88.5179 53.459 88.7958 53.4121 89.0554 53.2913C89.3146 53.1739 89.5284 53.0019 89.6968 52.7754C89.8652 52.549 89.9626 52.2908 89.989 52.0011Z" fill="white"/>
<path d="M84.0963 59.6094C84.2402 59.1708 84.4844 58.8075 84.8289 58.5192C85.1723 58.2342 85.5686 58.0456 86.0177 57.9536C86.4689 57.8659 86.9249 57.8976 87.3857 58.0488C87.7352 58.1635 88.0406 58.3324 88.3019 58.5554C88.5663 58.7794 88.7774 59.037 88.9353 59.3282C89.0953 59.6236 89.193 59.9373 89.2284 60.2692C89.2638 60.6011 89.2278 60.9308 89.1204 61.2581C89.0005 61.6235 88.8142 61.9338 88.5615 62.1888C88.3121 62.4448 88.0184 62.6371 87.6806 62.7656C87.3459 62.8951 86.9887 62.9539 86.6089 62.9419C86.2324 62.931 85.857 62.8413 85.4829 62.6727L86.6889 58.9976C86.4561 58.9669 86.2314 58.9812 86.0148 59.0404C85.8004 59.1038 85.6121 59.211 85.45 59.3619C85.2867 59.516 85.166 59.707 85.0877 59.9347C85.0085 60.1762 84.9969 60.4153 85.053 60.652C85.1081 60.8918 85.2212 61.1102 85.3924 61.3072L84.8288 62.2363C84.4687 61.907 84.2167 61.5057 84.0728 61.0326C83.932 60.5604 83.9398 60.086 84.0963 59.6094ZM87.4577 59.2129L86.5693 61.9204C86.8085 61.9637 87.0416 61.9505 87.2687 61.8807C87.4979 61.8151 87.6984 61.7031 87.87 61.5447C88.0438 61.3905 88.1682 61.1991 88.2433 60.9703C88.3174 60.7446 88.3322 60.5172 88.2877 60.2879C88.2423 60.0617 88.1466 59.8544 88.0008 59.6657C87.8572 59.4813 87.6762 59.3304 87.4577 59.2129Z" fill="white"/>
<path d="M81.7713 65.5903L86.1373 68.0616L85.6233 68.9697L85.1605 68.7077C85.2553 68.9612 85.2925 69.2282 85.272 69.5088C85.2516 69.7893 85.1689 70.0576 85.0239 70.3137C84.9317 70.4767 84.8184 70.6259 84.6841 70.7613L83.9724 69.88C84.0803 69.7912 84.1664 69.69 84.2306 69.5765C84.3394 69.3844 84.391 69.1811 84.3856 68.9667C84.383 68.7538 84.3289 68.5541 84.2232 68.3675C84.1175 68.1808 83.9671 68.0323 83.7721 67.9219L81.2573 66.4985L81.7713 65.5903Z" fill="white"/>
<path d="M79.724 75.6006L80.3903 74.7845L77.3159 72.2676L77.9759 71.4593L81.0503 73.9763L81.5549 73.3584L82.3631 74.0184L81.8586 74.6363L83.082 75.6287L82.422 76.437L81.1986 75.4445L80.5323 76.2606L79.724 75.6006Z" fill="white"/>
<path d="M74.6239 81.8837L73.7685 82.597L71.0601 75.057L71.9115 74.3469L72.8208 76.8549L77.4171 79.5541L76.5425 80.2835L73.3359 78.2871L74.6239 81.8837Z" fill="white"/>
</svg>
